<svg width="103" height="25" viewBox="0 0 103 25" fill="none" xmlns="http://www.w3.org/2000/svg">
<path d="M87.6226 5.99936C87.6226 6.76818 88.2461 7.39151 89.0151 7.39157C89.7839 7.39157 90.4068 6.76818 90.4068 5.99927C90.4068 5.2306 89.7833 4.60742 89.0151 4.60742C88.2461 4.60742 87.6226 5.2306 87.6226 5.99936ZM79.2818 17.7381C78.2923 17.7381 77.8123 17.2869 77.8123 16.3586C77.8123 15.729 78.0516 15.3029 78.5251 15.0926C78.9967 14.8832 79.5393 14.7768 80.1373 14.7768C80.4225 14.7768 80.7033 14.7921 80.971 14.8221C81.1915 14.8461 81.6157 14.8953 81.764 14.9126V15.2827C81.7043 16.0868 81.4155 16.7054 80.9063 17.1172C80.3978 17.5291 79.8507 17.7381 79.2818 17.7381ZM85.3862 19.0461L85.3659 17.8401C85.1869 17.8869 85.0349 17.9104 84.9119 17.9104C84.543 17.9104 84.1029 17.7429 84.1029 16.9442V12.3952C84.1029 11.2807 83.7442 10.4341 83.0364 9.8792C82.3227 9.32076 81.4003 9.03726 80.2952 9.03726C79.5372 9.03726 78.8605 9.10499 78.283 9.23841C77.7126 9.37001 77.0528 9.61343 76.3223 9.9619L75.9119 12.382L77.7235 12.5719L78.1221 11.0444L78.1476 11.0309C78.4073 10.8929 78.683 10.7999 78.9668 10.7538C79.2462 10.7084 79.5488 10.6857 79.8675 10.6857C80.7323 10.6857 81.2823 10.9411 81.5035 11.4454C81.716 11.9325 81.8244 12.4867 81.8244 13.0931V13.7296L81.7508 13.7211C81.4948 13.6912 81.2162 13.6686 80.9223 13.6541C80.6233 13.6391 80.3308 13.6313 80.0472 13.6313C78.905 13.6313 77.8296 13.8307 76.8511 14.2235C75.8923 14.6088 75.4056 15.4182 75.4056 16.6291C75.4056 17.6662 75.7403 18.4014 76.4001 18.8144C77.0688 19.2337 77.7585 19.4464 78.4481 19.4464C79.2403 19.4464 79.9125 19.2387 80.4465 18.8292C80.9848 18.4166 81.4075 17.9457 81.7022 17.4299L81.8244 17.2159V17.5022C81.927 18.8101 82.5832 19.4464 83.8309 19.4464C84.3889 19.4464 84.9119 19.3114 85.3862 19.0461ZM101.455 18.2201C102.12 17.4192 102.513 16.5763 102.627 15.7133L100.726 15.3543C100.454 16.8711 99.6714 17.6401 98.3984 17.6401C96.6364 17.6401 95.7422 16.5117 95.7422 14.2867C95.7422 12.0017 96.613 10.8432 98.3307 10.8432C98.9527 10.8432 99.5536 10.9816 100.115 11.2552L100.144 11.2694L100.478 12.9092L102.288 12.7202L101.896 9.98069C101.327 9.64858 100.744 9.40625 100.161 9.26074C99.5682 9.11241 98.9672 9.03726 98.375 9.03726C96.8844 9.03726 95.6615 9.53043 94.7405 10.5033C93.8187 11.4769 93.351 12.7879 93.351 14.3995C93.351 16.0401 93.8027 17.3047 94.6938 18.1584C95.5852 19.0127 96.7557 19.4464 98.1729 19.4464C99.6766 19.4464 100.781 19.0337 101.455 18.2201ZM92.1753 19.2214V17.5619H90.713V9.63278H86.9802V11.3143H88.5298V17.5619H87.0676V19.2214H92.1753ZM72.2642 18.6234C73.1039 18.0834 73.5287 17.2912 73.5287 16.2683C73.5287 15.4944 73.3307 14.9079 72.9409 14.5251C72.5451 14.1369 72.0466 13.8546 71.4594 13.6853C70.8632 13.5142 70.2595 13.3784 69.6652 13.2818C69.0605 13.1832 68.548 13.0494 68.142 12.8838C67.7115 12.7082 67.4932 12.392 67.4932 11.9446C67.4932 11.5163 67.6672 11.198 68.0102 10.9986C68.3415 10.8056 68.7505 10.708 69.2252 10.708C69.8309 10.708 70.4374 10.823 71.0279 11.0505L71.0641 11.0642L71.2632 12.5478L73.0274 12.3377L72.7896 9.93667C71.6569 9.3399 70.4352 9.03726 69.1579 9.03726C68.1809 9.03726 67.2395 9.25471 66.3602 9.68372C65.4953 10.1052 65.0566 10.8965 65.0566 12.0347C65.0566 12.8088 65.2583 13.3954 65.656 13.7779C66.059 14.1667 66.5688 14.4491 67.171 14.6181C67.782 14.7894 68.4009 14.9253 69.0102 15.0215C69.6304 15.1205 70.1545 15.2624 70.5687 15.443C71.0059 15.6339 71.2274 15.9571 71.2274 16.4038C71.2274 16.8647 70.9837 17.2142 70.503 17.4424C70.0387 17.6634 69.4877 17.7751 68.8649 17.7751C68.607 17.7751 68.3124 17.7526 67.9889 17.7074C67.661 17.6617 67.3487 17.5769 67.0603 17.4552L67.0197 17.4377L67.0418 16.1476L65.2728 15.9792L64.9271 18.4856C65.495 18.8006 66.1387 19.0411 66.8415 19.1997C67.5612 19.3632 68.2874 19.4464 68.9999 19.4464C70.3174 19.4464 71.4156 19.1696 72.2642 18.6234ZM60.2084 11.6526C60.7351 12.2333 61.0023 13.0817 61.0023 14.1742C61.0023 15.205 60.7476 16.0558 60.2454 16.7026C59.7394 17.3547 59.0326 17.6851 58.1444 17.6851C57.2244 17.6851 56.5205 17.3422 56.0522 16.6661C55.5887 15.9976 55.3535 15.1666 55.3535 14.1966C55.3535 13.1651 55.6009 12.3292 56.0885 11.7121C56.5795 11.0905 57.2712 10.7755 58.1444 10.7755C58.9852 10.7755 59.6798 11.0706 60.2084 11.6526ZM61.8936 18.0122C62.8743 17.0609 63.3715 15.7921 63.3715 14.2416C63.3715 12.8379 62.9371 11.6015 62.0803 10.5672C61.2259 9.53683 59.9169 9.01419 58.1894 9.01419C56.4762 9.01419 55.1669 9.54068 54.298 10.5785C53.4263 11.6203 52.9845 12.8831 52.9845 14.3317C52.9845 15.8975 53.4517 17.1549 54.3729 18.0689C55.2935 18.9829 56.5322 19.4464 58.0541 19.4464C59.6203 19.4464 60.9121 18.9637 61.8936 18.0122ZM46.2738 19.2214V17.2299H47.7033V10.152H47.5089L43.2871 18.1937H42.2489L37.8037 9.95122H37.6098V17.2299H39.1288V19.2214H33.7646V17.2299H35.4176V6.8239H33.5859V4.83237H37.4128L42.7739 14.728H42.9422L48.0353 4.83237H51.8835V6.8239H50.052V17.2299H51.705V19.2214H46.2738Z" fill="#231F20"/>
<path d="M9.59961 11.9994L11.9993 14.4003L14.3997 11.9994L11.9993 9.59961L9.59961 11.9994Z" fill="#231F20"/>
<path d="M7.19876 19.2018L4.79883 16.8021L7.19876 14.4023L9.59914 16.8021L7.19876 19.2018Z" fill="#797A7B"/>
<path d="M16.8002 19.2018L14.4004 16.8021L16.8002 14.4023L19.2004 16.8021L16.8002 19.2018Z" fill="#464648"/>
<path d="M11.9993 24.0011L9.59961 21.6009L11.9993 19.2012L14.3997 21.6009L11.9993 24.0011Z" fill="#BEBDBB"/>
<path d="M12 0L0 12.0001L2.40036 14.401L12 4.80071L21.6009 14.401L24.0008 12.0001L12 0Z" fill="#231F20"/>
</svg>
